<svg height="512" viewBox="0 0 512 512" width="512" xmlns="http://www.w3.org/2000/svg" xmlns:xlink="http://www.w3.org/1999/xlink"><linearGradient id="New_Gradient_Swatch_15" gradientUnits="userSpaceOnUse" x1="81.265" x2="457.265" y1="237.522" y2="237.522"><stop offset=".015" stop-color="#cacad5"/><stop offset="1" stop-color="#dcdce3"/></linearGradient><linearGradient id="New_Gradient_Swatch_14" gradientUnits="userSpaceOnUse" x1="457.265" x2="497.265" y1="237.522" y2="237.522"><stop offset=".015" stop-color="#a6a6b9"/><stop offset="1" stop-color="#cacad5"/></linearGradient><linearGradient id="New_Gradient_Swatch_22" gradientUnits="userSpaceOnUse" x1="17.265" x2="457.265" y1="209.522" y2="209.522"><stop offset=".011" stop-color="#dcdce3"/><stop offset="1" stop-color="#ededf1"/></linearGradient><linearGradient id="New_Gradient_Swatch_12" gradientUnits="userSpaceOnUse" x1="17.265" x2="457.265" y1="117.522" y2="117.522"><stop offset=".011" stop-color="#80d1cb"/><stop offset="1" stop-color="#bfe8e5"/></linearGradient><linearGradient id="New_Gradient_Swatch_5" gradientUnits="userSpaceOnUse" x1="333.118" x2="468.882" y1="465.404" y2="329.639"><stop offset=".011" stop-color="#f8c73f"/><stop offset="1" stop-color="#fada7f"/></linearGradient><g id="_30-appointment" data-name="30-appointment"><g id="linear_color" data-name="linear color"><path d="m81.265 77.522h376v320h-376z" fill="url(#New_Gradient_Swatch_15)"/><path d="m457.265 77.522h40v320h-40z" fill="url(#New_Gradient_Swatch_14)"/><path d="m393.265 341.522h-376l64-264h376z" fill="url(#New_Gradient_Swatch_22)"/><path d="m457.265 77.522h-376l-19.394 80h376z" fill="url(#New_Gradient_Swatch_12)"/><circle cx="401" cy="397.522" fill="url(#New_Gradient_Swatch_5)" r="96"/><path d="m509.265 77.521a12 12 0 0 0 -12-12h-53.414a51.988 51.988 0 0 0 -101.173 0h-18.827a51.988 51.988 0 0 0 -101.173 0h-18.827a51.988 51.988 0 0 0 -101.173 0h-21.418a12.087 12.087 0 0 0 -11.66 9.171l-64 264a12 12 0 0 0 11.66 14.828h52v44a12 12 0 0 0 12 12h212.41a108 108 0 0 0 215.3-9.37c-.003-1.263.295-322.629.295-322.629zm-24 252.53a109 109 0 0 0 -16-16.158v-76.373a12 12 0 1 0 -24 0v61.493a107.1 107.1 0 0 0 -27.374-8.168l48.809-201.324h18.562zm-394.565-240.53h11.975a52.079 52.079 0 0 0 50.587 40 12 12 0 1 0 0-24 28.032 28.032 0 0 1 -25.293-16h94.706a52.079 52.079 0 0 0 50.587 40 12 12 0 1 0 0-24 28.032 28.032 0 0 1 -25.293-16h94.706a52.079 52.079 0 0 0 50.587 40 12 12 0 1 0 0-24 28.032 28.032 0 0 1 -25.293-16h74.031l-13.577 56h-351.295zm302.562-40a28.034 28.034 0 0 1 25.292 16h-50.581a28.031 28.031 0 0 1 25.292-16zm-120 0a28.034 28.034 0 0 1 25.292 16h-50.581a28.031 28.031 0 0 1 25.292-16zm-120 0a28.034 28.034 0 0 1 25.292 16h-50.581a28.031 28.031 0 0 1 25.292-16zm-81.961 120h351.3l-29.154 120.269a107.886 107.886 0 0 0 -76.283 39.73h-284.647zm21.956 184h209.121a107.134 107.134 0 0 0 -8.708 32h-200.41zm319.743 127.129v-11.129a12 12 0 1 0 -24 0v11.129a84.17 84.17 0 0 1 -71.129-71.129h11.129a12 12 0 0 0 0-24h-11.129a84.17 84.17 0 0 1 71.129-71.128v11.128a12 12 0 0 0 24 0v-11.128a84.17 84.17 0 0 1 71.129 71.128h-11.129a12 12 0 0 0 0 24h11.129a84.17 84.17 0 0 1 -71.129 71.129z"/><path d="m261.265 213.521h32a12 12 0 0 0 0-24h-32a12 12 0 0 0 0 24z"/><path d="m181.265 213.521h32a12 12 0 0 0 0-24h-32a12 12 0 0 0 0 24z"/><path d="m101.265 213.521h32a12 12 0 0 0 0-24h-32a12 12 0 0 0 0 24z"/><path d="m341.265 213.521h32a12 12 0 0 0 0-24h-32a12 12 0 0 0 0 24z"/><path d="m245.265 261.521h32a12 12 0 1 0 0-24h-32a12 12 0 1 0 0 24z"/><path d="m165.265 261.521h32a12 12 0 0 0 0-24h-32a12 12 0 1 0 0 24z"/><path d="m85.265 261.521h32a12 12 0 0 0 0-24h-32a12 12 0 1 0 0 24z"/><path d="m325.265 261.521h32a12 12 0 0 0 0-24h-32a12 12 0 1 0 0 24z"/><path d="m237.265 309.521h32a12 12 0 0 0 0-24h-32a12 12 0 0 0 0 24z"/><path d="m157.265 309.521h32a12 12 0 0 0 0-24h-32a12 12 0 0 0 0 24z"/><path d="m121.265 297.521a12 12 0 0 0 -12-12h-32a12 12 0 1 0 0 24h32a12 12 0 0 0 12-12z"/><path d="m424.515 357.036-25.884 25.884-24.265-12.132a12 12 0 0 0 -10.732 21.467l32 16a12 12 0 0 0 13.851-2.248l32-32a12 12 0 0 0 -16.97-16.971z"/></g></g></svg>