<svg id="Layer_1" enable-background="new 0 0 512 512" height="512" viewBox="0 0 512 512" width="512" xmlns="http://www.w3.org/2000/svg"><g><path d="m451.084 118.796c-44.751-58.814-115.477-96.792-195.084-96.792s-150.333 37.978-195.084 96.792z" fill="#ffc839"/><path d="m277.443 116.796h45.493v44.19h-45.493z" fill="#0b78db"/><path d="m189.064 116.796h44.19v44.19h-44.19z" fill="#0b78db"/><path d="m100.684 116.796h44.19v44.19h-44.19z" fill="#0966cc"/><path d="m56.495 116.796h-41.26c-2.338 0-4.233 1.895-4.233 4.233v39.957h45.493z" fill="#0966cc"/><path d="m233.254 116.796h44.19v44.19h-44.19z" fill="#1e9ef4"/><path d="m144.874 116.796h44.19v44.19h-44.19z" fill="#1e9ef4"/><path d="m166.969 128.796c0-6.6 5.4-12 12-12h-34.095v44.19h22.095z" fill="#148be8"/><path d="m455.505 116.796v44.19h45.493v-39.957c0-2.338-1.895-4.233-4.233-4.233z" fill="#0b78db"/><path d="m367.126 116.796h44.19v44.19h-44.19z" fill="#0b78db"/><path d="m411.315 116.796h44.19v44.19h-44.19z" fill="#1e9ef4"/><path d="m322.936 116.796h44.19v44.19h-44.19z" fill="#1e9ef4"/><path d="m56.495 116.796h44.19v44.19h-44.19z" fill="#148be8"/><path d="m11.002 160.986h45.493v44.1h-45.493z" fill="#148be8"/><path d="m100.684 160.986h44.19v44.1h-44.19z" fill="#148be8"/><path d="m189.064 160.986h44.19v44.1h-44.19z" fill="#1e9ef4"/><path d="m277.443 160.986h45.493v44.1h-45.493z" fill="#1e9ef4"/><path d="m277.443 205.086h45.493v44.19h-45.493z" fill="#0b78db"/><path d="m189.064 205.086h44.19v44.19h-44.19z" fill="#0b78db"/><path d="m100.684 205.086h44.19v44.19h-44.19z" fill="#0966cc"/><path d="m11.002 205.086h45.493v44.19h-45.493z" fill="#0966cc"/><path d="m233.254 160.986h44.19v44.1h-44.19z" fill="#0b78db"/><path d="m233.254 205.086h44.19v44.19h-44.19z" fill="#1e9ef4"/><path d="m144.874 160.986h44.19v44.1h-44.19z" fill="#0b78db"/><path d="m144.874 160.986h22.095v44.1h-22.095z" fill="#0966cc"/><path d="m144.874 205.086h44.19v44.19h-44.19z" fill="#1e9ef4"/><path d="m166.969 237.276v-32.19h-22.095v44.19h34.095c-6.6 0-12-5.4-12-12z" fill="#148be8"/><path d="m367.126 160.986h44.19v44.1h-44.19z" fill="#1e9ef4"/><path d="m455.505 160.986h45.493v44.1h-45.493z" fill="#1e9ef4"/><g fill="#0b78db"><path d="m455.505 205.086h45.493v44.19h-45.493z"/><path d="m367.126 205.086h44.19v44.19h-44.19z"/><path d="m411.315 160.986h44.19v44.1h-44.19z"/></g><path d="m411.315 205.086h44.19v44.19h-44.19z" fill="#1e9ef4"/><path d="m322.936 160.986h44.19v44.1h-44.19z" fill="#0b78db"/><path d="m322.936 205.086h44.19v44.19h-44.19z" fill="#1e9ef4"/><path d="m56.495 160.986h44.19v44.1h-44.19z" fill="#0966cc"/><path d="m56.495 205.086h44.19v44.19h-44.19z" fill="#148be8"/><path d="m439.745 298.045c-30.627 0-30.627-11.378-61.254-11.378-30.625 0-30.625 11.378-61.251 11.378-30.624 0-30.624-11.378-61.249-11.378-30.623 0-30.623 11.378-61.246 11.378-30.624 0-30.624-11.378-61.248-11.378-30.625 0-30.625 11.378-61.249 11.378-30.352 0-30.639-11.171-60.459-11.369 1.586 19.956 5.566 39.236 11.648 57.558 18.946 2.545 23.015 10.618 48.811 10.618 30.625 0 30.625-11.378 61.249-11.378s30.624 11.378 61.248 11.378c30.623 0 30.623-11.378 61.246-11.378 30.624 0 30.624 11.378 61.249 11.378s30.625-11.378 61.251-11.378c30.627 0 30.627 11.378 61.254 11.378 25.8 0 29.868-8.073 48.818-10.618 6.082-18.323 10.062-37.602 11.648-57.558-29.824.198-30.111 11.369-60.466 11.369z" fill="#86d8fc"/><path d="m178.969 298.651c-.935-.822-1.82-1.637-2.674-2.447-14.155-3.22-19.975-9.536-42.797-9.536-30.625 0-30.625 11.378-61.249 11.378-30.352 0-30.639-11.171-60.459-11.369 1.586 19.956 5.566 39.236 11.648 57.558 18.946 2.545 23.015 10.618 48.811 10.618 30.625 0 30.625-11.378 61.249-11.378 30.576 0 30.628 11.34 61.108 11.376l-5.106-2.851c-37-25-10.531-53.349-10.531-53.349z" fill="#56c2ff"/><path d="m439.745 246.926c-30.627 0-30.627-11.378-61.254-11.378-30.625 0-30.625 11.378-61.251 11.378-30.624 0-30.624-11.378-61.249-11.378-30.623 0-30.623 11.378-61.246 11.378-30.624 0-30.624-11.378-61.248-11.378s-30.624 11.378-61.249 11.378c-30.623 0-30.623-11.378-61.246-11.378v31.454c0 7.271.336 14.462.956 21.572 29.651.239 29.996 11.367 60.29 11.367 30.625 0 30.625-11.378 61.249-11.378s30.624 11.378 61.248 11.378c30.623 0 30.623-11.378 61.246-11.378 30.624 0 30.624 11.378 61.249 11.378s30.625-11.378 61.251-11.378c30.627 0 30.627 11.378 61.254 11.378 30.298 0 30.643-11.128 60.297-11.367.62-7.11.956-14.301.956-21.572v-31.454c-30.627 0-30.627 11.378-61.253 11.378z" fill="#56c2ff"/><path d="m178.963 298.645c-36.522-32.097-10.656-55.887-10.656-55.887-9.329-3.248-16.738-7.21-34.809-7.21-30.624 0-30.624 11.378-61.249 11.378-30.623 0-30.623-11.378-61.246-11.378v31.454c0 7.271.336 14.462.956 21.572 29.651.239 29.996 11.367 60.29 11.367 30.625 0 30.625-11.378 61.249-11.378 24.2 0 29.287 7.101 45.465 10.082z" fill="#3ab0fa"/><path d="m439.745 352.956c-30.627 0-30.627-11.378-61.254-11.378-30.625 0-30.625 11.378-61.251 11.378-30.624 0-30.624-11.378-61.249-11.378-30.623 0-30.623 11.378-61.246 11.378-30.624 0-30.624-11.378-61.248-11.378s-30.624 11.378-61.249 11.378c-26.08 0-29.961-8.248-49.452-10.697 7.118 22.074 17.268 42.786 29.985 61.628 5.041 1.232 11.11 2.083 19.467 2.083 30.625 0 30.625-11.378 61.249-11.378s30.624 11.378 61.248 11.378c30.623 0 30.623-11.378 61.246-11.378 30.624 0 30.624 11.378 61.249 11.378s30.625-11.378 61.251-11.378c30.627 0 30.627 11.378 61.254 11.378 8.362 0 14.433-.851 19.475-2.084 12.716-18.842 22.866-39.554 29.984-61.627-19.494 2.448-23.375 10.697-49.459 10.697z" fill="#b0ebff"/><path d="m133.497 341.578c-30.624 0-30.624 11.378-61.249 11.378-26.08 0-29.961-8.248-49.452-10.697 7.118 22.074 17.268 42.786 29.985 61.628 5.041 1.232 11.11 2.083 19.467 2.083 30.625 0 30.625-11.378 61.249-11.378s30.624 11.378 61.248 11.378c30.623 0 30.623-11.378 61.246-11.378 1.587 0 3.073.037 4.504.095 1.363-1.165 2.262-1.786 2.262-1.786l-71.661-40.01c-27.009-.869-28.248-11.313-57.599-11.313z" fill="#86d8fc"/><path d="m298.677 315.121c-.504.38-1.009.762-1.511 1.165-20.545 16.499-26.903 42.697-14.2 58.515s39.655 15.265 60.2-1.234c.243-.195.47-.394.707-.591-2.424-38.301-35.268-53.976-45.196-57.855z" fill="#f9ba8f"/><path d="m133.498 394.593c30.624 0 30.624 11.378 61.248 11.378 30.623 0 30.623-11.378 61.246-11.378 2.894 0 5.513.102 7.911.286-4.671-7.884-8.807-16.998-10.487-22.607-1.748-5.837-1.322-12.097 1.129-17.676 5.883-13.395 7.277-28.76 9.25-36.364.58-2.234 1.611-4.32 3.031-6.139l40.435-51.777 98.303 25.32c10.092 2.8 20.542-1.225 23.335-11.319 2.795-10.094-3.122-18.646-13.215-21.439l-110.511-32.493c-7.391-2.047-15.286.561-20.006 6.604l-64.259 82.284c-3.077 3.94-6.399 7.682-9.946 11.204-8.45 8.391-18.105 15.488-28.665 20.991-49.042 25.556-78.316 53.062-86.5 61.287 10.835-3.365 17.811-8.162 37.701-8.162z" fill="#f9ba8f"/><path d="m242.318 281.858-21.409 27.414c-3.077 3.94-6.399 7.682-9.946 11.204-8.45 8.391-18.105 15.488-28.665 20.991-49.042 25.556-78.316 53.062-86.5 61.287 10.834-3.365 17.81-8.162 37.7-8.162 30.624 0 30.624 11.378 61.248 11.378 30.623 0 30.623-11.378 61.246-11.378 2.894 0 5.513.102 7.911.286-4.671-7.884-8.807-16.998-10.487-22.607-1.748-5.837-1.322-12.097 1.129-17.676 5.883-13.395 7.277-28.76 9.25-36.364.58-2.234 1.611-4.32 3.031-6.139l7.75-9.923c-29.923 4.67-32.258-20.311-32.258-20.311z" fill="#fbaa75"/><path d="m439.745 404.074c-30.627 0-30.627-11.378-61.254-11.378-30.625 0-30.625 11.378-61.251 11.378-30.624 0-30.624-11.378-61.249-11.378-30.623 0-30.623 11.378-61.246 11.378-30.624 0-30.624-11.378-61.248-11.378-30.625 0-30.625 11.378-61.249 11.378-9.205 0-15.635-1.031-20.97-2.469 13.536 20.546 30.069 38.942 48.997 54.544 8.626-3.125 16.186-6.645 33.222-6.645 30.624 0 30.624 11.378 61.248 11.378 30.623 0 30.623-11.378 61.246-11.378 30.624 0 30.624 11.378 61.249 11.378s30.625-11.378 61.251-11.378c17.041 0 24.602 3.522 33.231 6.647 18.93-15.602 35.463-34 49.001-54.548-5.337 1.439-11.769 2.471-20.978 2.471z" fill="#ccf4ff"/><path d="m262.747 392.909c-2.084-.133-4.313-.213-6.756-.213-30.623 0-30.623 11.378-61.246 11.378-30.624 0-30.624-11.378-61.248-11.378-30.625 0-30.625 11.378-61.249 11.378-9.205 0-15.635-1.031-20.97-2.469 13.536 20.546 30.069 38.942 48.997 54.544 8.626-3.125 16.186-6.645 33.222-6.645 30.624 0 30.624 11.378 61.248 11.378 30.623 0 30.623-11.378 61.246-11.378 1.705 0 3.302.04 4.828.107 1.182-1.173 1.938-1.798 1.938-1.798-34.686-30.657-.448-54.6-.01-54.904z" fill="#b0ebff"/><path d="m256 512c59.886 0 114.744-21.498 157.305-57.183-9.331-3.248-16.74-7.21-34.814-7.21-30.625 0-30.625 11.378-61.251 11.378-30.624 0-30.624-11.378-61.249-11.378-30.623 0-30.623 11.378-61.246 11.378-30.624 0-30.624-11.378-61.248-11.378-18.068 0-25.478 3.96-34.805 7.208 42.562 35.686 97.421 57.185 157.308 57.185z" fill="#f0fcff"/><path d="m260.177 511.953c-32.068-35.207 2.22-63.841 2.572-64.133-2.085-.133-4.314-.213-6.757-.213-30.623 0-30.623 11.378-61.246 11.378-30.624 0-30.624-11.378-61.248-11.378-18.068 0-25.478 3.96-34.805 7.208 42.561 35.686 97.42 57.185 157.307 57.185 1.396 0 2.786-.024 4.177-.047z" fill="#ccf4ff"/><path d="m374.186 52.373c-35.045-19.344-75.324-30.369-118.186-30.369s-83.141 11.025-118.186 30.369c4.475 23.067 24.886 40.627 49.21 40.627h137.952c24.324 0 44.735-17.56 49.21-40.627z" fill="#ffdd40"/><path d="m204.105 22.823c-.466-8.355-8.869-14.449-17.071-12.071-1.427.414-2.954-.074-3.864-1.249-4.472-5.78-11.475-9.503-19.348-9.503-10.879 0-20.093 7.107-23.266 16.93-.526 1.627-2.148 2.588-3.847 2.394-5.77-.658-11.365 2.162-14.329 7.026-1.008 1.655-3.137 2.172-4.832 1.232-2.008-1.114-4.389-1.636-6.911-1.331-5.161.625-9.306 4.815-9.88 9.981-.762 6.862 4.589 12.672 11.297 12.672h95.886c6.365 0 11.754-5.209 11.646-11.573-.113-6.619-5.733-11.426-11.844-11.164-1.911.082-3.53-1.436-3.637-3.344z" fill="#b0ebff"/><path d="m387.624 50.211c-.462-8.276-8.785-14.312-16.909-11.956-1.414.41-2.926-.073-3.827-1.237-4.429-5.725-11.366-9.412-19.164-9.412-10.776 0-19.902 7.039-23.045 16.769-.521 1.612-2.128 2.564-3.811 2.372-5.716-.651-11.257 2.141-14.193 6.959-.999 1.639-3.107 2.151-4.786 1.22-1.99-1.103-4.348-1.621-6.845-1.318-5.112.619-9.218 4.769-9.786 9.886-.755 6.797 4.545 12.551 11.19 12.551h94.975c6.305 0 11.643-5.159 11.535-11.463-.112-6.556-5.678-11.317-11.732-11.058-1.892.081-3.497-1.422-3.602-3.313z" fill="#ccf4ff"/><path d="m113.236 63.521c.622-11.152 11.838-19.286 22.785-16.111 1.905.552 3.943-.099 5.157-1.667 5.969-7.715 15.316-12.683 25.825-12.683 14.521 0 26.819 9.486 31.053 22.597.701 2.172 2.868 3.454 5.135 3.196 7.702-.878 15.169 2.885 19.125 9.378 1.345 2.208 4.187 2.898 6.449 1.644 2.681-1.486 5.858-2.184 9.224-1.776 6.888.834 12.422 6.426 13.188 13.322 1.018 9.159-6.125 16.913-15.078 16.913h-127.982c-8.496 0-15.689-6.952-15.544-15.447.151-8.835 7.651-15.25 15.809-14.901 2.55.108 4.711-1.918 4.854-4.465z" fill="#f0fcff"/><g><path d="m152.034 84.148c2.387-.901 3.579-3.613 2.709-6.012-3.808-10.5 3.31-22.386 14.624-23.767 1.969-.24 3.587-1.64 4.087-3.559 1.394-5.354 4.138-10.319 8.012-14.37-4.359-2.161-9.268-3.381-14.464-3.381-10.509 0-19.856 4.968-25.825 12.683-1.214 1.569-3.252 2.22-5.157 1.667-10.947-3.175-22.163 4.959-22.785 16.111-.142 2.548-2.304 4.573-4.853 4.464-8.158-.349-15.658 6.067-15.809 14.901-.145 8.495 7.048 15.447 15.544 15.447h34.107c.008-6.243 3.946-11.97 9.81-14.184z" fill="#ccf4ff"/></g><path d="m298.677 315.121c-.504.38-1.008.762-1.51 1.165-20.545 16.499-26.903 42.697-14.2 58.515 3.286 4.092 7.531 7.079 12.367 8.987-2.019-31.463 16.634-43.255 25.806-47.125 1.919-.81 3.548-2.102 4.798-3.715-10.22-10.364-21.981-15.764-27.261-17.827z" fill="#fbaa75"/><path d="m353.004 318.556c-12.626-15.721-35.017-18.724-55.462-2.559 9.682 3.747 42.849 19.339 45.374 57.764.083-.066.168-.127.251-.194 20.545-16.499 22.54-39.193 9.837-55.011z" fill="#836cd9"/><path d="m349.87 315.121c-12.98-12.629-33.478-14.028-52.328.875 5.197 2.011 17.156 7.442 27.514 17.976 1.114-1.151 2.005-2.523 2.622-4.042 6.832-16.807 22.192-14.809 22.192-14.809z" fill="#7255ce"/></g></svg>